<?xml version="1.0" encoding="UTF-8" standalone="no"?>
<!DOCTYPE svg PUBLIC "-//W3C//DTD SVG 1.1//EN"
 "http://www.w3.org/Graphics/SVG/1.1/DTD/svg11.dtd">
<!-- Generated by graphviz version 2.28.0 (20110507.0327)
 -->
<!-- Title: G Pages: 1 -->
<svg width="288pt" height="96pt"
 viewBox="0.00 0.00 288.00 96.00" xmlns="http://www.w3.org/2000/svg" xmlns:xlink="http://www.w3.org/1999/xlink">
<g id="graph1" class="graph" transform="scale(1 1) rotate(0) translate(4 92)">
<title>G</title>
<polygon fill="white" stroke="white" points="-4,5 -4,-92 285,-92 285,5 -4,5"/>
<g id="graph2" class="cluster"><title>cluster_global</title>
<polyline fill="none" stroke="gray" points="20,-8 260,-8 "/>
<path fill="none" stroke="gray" d="M260,-8C266,-8 272,-14 272,-20"/>
<polyline fill="none" stroke="gray" points="272,-20 272,-68 "/>
<path fill="none" stroke="gray" d="M272,-68C272,-74 266,-80 260,-80"/>
<polyline fill="none" stroke="gray" points="260,-80 20,-80 "/>
<path fill="none" stroke="gray" d="M20,-80C14,-80 8,-74 8,-68"/>
<polyline fill="none" stroke="gray" points="8,-68 8,-20 "/>
<path fill="none" stroke="gray" d="M8,-20C8,-14 14,-8 20,-8"/>
<text text-anchor="middle" x="140" y="-67.2" font-family="Times New Roman,serif" font-size="11.00" fill="gray">global</text>
</g>
<!-- \\Php4Console -->
<g id="node2" class="node"><title>\\Php4Console</title>
<a xlink:href="php4console.class.html" xlink:title="Php4Console" target="_parent">
<polygon fill="none" stroke="black" points="107.5,-52 16.5,-52 16.5,-16 107.5,-16 107.5,-52"/>
<text text-anchor="middle" x="62" y="-31.2" font-family="Courier,monospace" font-size="11.00">Php4Console</text>
</a>
</g>
<!-- \\Text4Shell -->
<g id="node3" class="node"><title>\\Text4Shell</title>
<a xlink:href="text4shell.class.html" xlink:title="Text4Shell" target="_parent">
<polygon fill="none" stroke="black" points="264,-52 180,-52 180,-16 264,-16 264,-52"/>
<text text-anchor="middle" x="222" y="-31.2" font-family="Courier,monospace" font-size="11.00">Text4Shell</text>
</a>
</g>
<!-- \\Text4Shell&#45;&gt;\\Php4Console -->
<g id="edge3" class="edge"><title>\\Text4Shell&#45;&gt;\\Php4Console</title>
<path fill="none" stroke="black" d="M179.9,-34C160.971,-34 138.237,-34 117.87,-34"/>
<polygon fill="none" stroke="black" points="117.78,-30.5001 107.78,-34 117.78,-37.5001 117.78,-30.5001"/>
</g>
</g>
</svg>
